<?xml version="1.0" standalone="no"?>
<!DOCTYPE svg PUBLIC "-//W3C//DTD SVG 20010904//EN"
 "http://www.w3.org/TR/2001/REC-SVG-20010904/DTD/svg10.dtd">
<svg version="1.0" xmlns="http://www.w3.org/2000/svg"
 width="300.000000pt" height="300.000000pt" viewBox="0 0 300.000000 300.000000"
 preserveAspectRatio="xMidYMid meet">
<metadata>
Created by potrace 1.14, written by Peter Selinger 2001-2017
</metadata>
<g transform="translate(0.000000,300.000000) scale(0.100000,-0.100000)"
fill="#000000" stroke="none">
<path d="M1264 2765 c-13 -25 -14 -36 -5 -53 6 -12 18 -22 25 -22 11 0 10 -13
-5 -65 -10 -36 -18 -69 -19 -73 0 -4 -12 -10 -26 -14 -82 -22 -85 -108 -4
-108 25 0 27 -5 34 -105 3 -44 10 -96 16 -115 9 -29 8 -37 -6 -45 -40 -25 -64
-47 -58 -56 7 -13 -5 -49 -17 -49 -16 0 -121 -84 -158 -126 -46 -53 -101 -140
-101 -159 0 -8 -4 -15 -10 -15 -5 0 -10 -9 -10 -20 0 -11 -10 -28 -21 -38 -50
-40 -79 -77 -80 -101 -2 -45 2 -65 19 -91 12 -18 17 -49 18 -110 1 -47 4 -112
8 -144 18 -149 116 -302 224 -350 49 -22 44 7 47 -287 1 -109 5 -212 9 -231 7
-41 61 -96 102 -106 16 -4 63 -7 105 -7 72 0 75 -1 71 -22 -3 -17 -21 -29 -76
-49 -39 -15 -77 -33 -84 -40 -22 -22 -52 -97 -52 -131 l0 -33 414 0 c228 0
417 3 420 8 7 12 -31 110 -56 141 -21 27 -74 59 -108 65 -8 1 -41 8 -72 15
-55 12 -58 14 -58 42 0 16 -5 29 -12 29 -10 0 -13 28 -13 108 -1 96 -12 259
-20 272 -1 3 -6 32 -10 65 -3 32 -8 62 -10 65 -2 4 -6 19 -9 35 -6 35 12 59
63 82 147 68 310 229 327 322 4 20 9 40 11 44 16 27 22 301 10 402 -17 146
-74 287 -145 360 -76 79 -243 127 -418 120 -97 -3 -108 -1 -117 30 -28 95 -57
202 -57 211 0 6 14 17 30 24 17 7 35 21 41 31 13 25 4 24 -21 -1 -11 -11 -29
-20 -40 -20 -17 0 -20 7 -20 45 0 44 0 44 27 34 15 -6 33 -15 40 -21 8 -7 13
-7 13 0 0 14 -46 42 -70 42 -16 0 -20 6 -20 34 0 53 11 96 25 96 40 0 50 73
15 102 -36 29 -85 21 -106 -17z m-6 -280 c0 -38 -4 -45 -20 -45 -54 0 -76 45
-35 73 42 30 56 22 55 -28z"/>
</g>
</svg>
